<svg xmlns="http://www.w3.org/2000/svg" viewBox="0 0 500 500"><g id="freepik--plant-1--inject-2"><g style="opacity:0.2"><path d="M330.68,191.58c.21.1,2.25-15,2.27-16,.22-11.19-5.92-32.94-17.77-37-8.53-2.94-17,2.82-19,11.25-2,8.62,3,18.29,8.33,24.72C310.79,182.13,330.67,191.57,330.68,191.58Z"></path><path d="M109.18,213c9.4,2.84,31.18-.24,31.2-.25.22,0-6.4-13.74-6.91-14.56-6-9.45-23.11-24.2-35.25-21.07C89.48,179.42,85.6,188.9,88.6,197,91.66,205.32,101.18,210.62,109.18,213Z"></path><path d="M222,382c2.1,3.88,4.2,7.77,6.06,11.63,1.2,2.67,2.55,5.15,3.61,7.9l3.3,8c1.91,5.17,3.91,10.48,5.64,15.57,1.23,3.53,2.34,6.91,3.47,10.32-2.26-3.72-6.84-10.9-7.29-11.46-7-8.71-25.74-21.39-37.43-16.89-8.42,3.25-11.19,13.11-7.28,20.84,4,7.89,14.07,12.07,22.29,13.55,9.06,1.63,28.12-3.11,30.49-3.72,1.85,5.65,3.59,11.15,5.15,16.37,2.8,9.28,5.16,17.78,7.15,25.32h8.32c-2.3-8.09-5.07-17.34-8.38-27.53-1.85-5.74-4-11.83-6.16-18.07a160.52,160.52,0,0,0,16.07-10c7.19,6.14,24.47,12.28,26.7,13.05-1.57,5.73-3.15,11.28-4.73,16.5-2.91,9.7-5.75,18.45-8.35,26.08h8.4c2.24-7.17,4.64-15.18,7.08-24,1.62-5.81,3.24-12.05,4.84-18.47,2.4.21,22,1.83,30.7-1.25,7.88-2.79,17.14-8.54,19.81-17,2.61-8.26-1.71-17.54-10.55-19.39-12.26-2.56-28.68,13-34.21,22.71-.33.57-3.18,7.19-4.9,11.4.64-2.63,1.29-5.17,1.91-7.89,1.27-5.35,2.39-10.73,3.6-16.52l1.49-8.53c.55-2.83.78-5.9,1.19-8.88.8-6.93,1.28-14,1.6-21.11,4.69,1.11,21.41,4.78,29.66,3.21s18.23-5.84,22.15-13.77c3.84-7.77,1-17.6-7.48-20.77-11.74-4.38-30.32,8.49-37.26,17.26-.44.55-4.71,7.41-7,11.22.16-4.28.35-8.56.37-12.89.06-12.53-.26-25.2-.53-37.85-.09-3.87-.12-7.73-.17-11.6,1.66.41,21.44,5.21,30.68,3.45,8.21-1.56,18.23-5.84,22.15-13.77,3.83-7.77,1-17.6-7.49-20.76-11.74-4.39-30.31,8.48-37.26,17.26-.52.66-6.66,10.53-8.1,13.12-.11-8.51-.14-17,.17-25.36a261,261,0,0,1,3.27-33.72c.77.2,21.39,5.3,30.85,3.5,8.21-1.57,18.24-5.85,22.15-13.78,3.84-7.76,1-17.6-7.48-20.76C348.56,210.14,330,223,323,231.79c-.46.57-5.14,8.09-7.28,11.72l-.67-.25a190.24,190.24,0,0,1,9.34-32.76c2.17-5.87,4.57-11.37,7-16.66,3.74,1.34,20.91,7.3,29.6,6.61,8.34-.65,18.77-3.8,23.54-11.25,4.66-7.3,2.89-17.39-5.17-21.46-11.18-5.65-31.06,5.1-38.92,13.06-.43.43-4.29,5.32-7.06,8.91,1.15-2.37,2.29-4.84,3.43-7.09,4.28-8.46,8.71-15.94,12.69-22.53,2.3-3.73,4.44-7.06,6.49-10.16,4.36-.6,21.9-3.22,29.17-7.75,7.09-4.42,14.9-12,15.7-20.84.77-8.62-5.44-16.76-14.47-16.66-12.53.14-25.22,18.84-28.53,29.53-.29.92-3.11,15.88-2.88,15.86l.26,0c-2,2.94-4.16,6.11-6.42,9.62-4.14,6.52-8.75,13.93-13.22,22.33a262.38,262.38,0,0,0-13.15,27.78,193.46,193.46,0,0,0-10.16,32.85c0,.13,0,.27-.06.41-.37-3.66-1.74-13.83-1.94-14.6-2.74-10.85-14.41-30.21-26.91-31-9-.58-15.66,7.22-15.34,15.87.32,8.84,7.71,16.85,14.56,21.65,7.72,5.4,27.82,9.14,29.42,9.43a262.19,262.19,0,0,0-4.17,34.78c-.39,6.79-.58,13.65-.68,20.53-.42-3.14-.82-6-.92-6.34-2.74-10.85-14.41-30.21-26.92-31-9-.59-15.65,7.21-15.33,15.87.32,8.84,7.71,16.84,14.56,21.64s24,8.39,28.54,9.26c0,2.64-.05,5.28-.05,7.92,0,12.66,0,25.3-.29,37.7-.12,4.37-.39,8.67-.65,13-.38-2.79-.72-5.14-.81-5.5-2.74-10.85-14.41-30.2-26.91-31-9-.58-15.66,7.21-15.34,15.87.32,8.84,7.72,16.85,14.56,21.64,6.63,4.64,22.36,8,27.73,9.11-.39,4.39-.78,8.8-1.37,13-.46,2.89-.71,5.7-1.34,8.58s-1.11,5.69-1.66,8.49c-1.26,5.36-2.53,10.9-3.89,16.1-.92,3.62-1.86,7.06-2.79,10.52.16-4.35.31-12.86.24-13.58-.71-7.4-4.76-19.09-11-26.9a17.77,17.77,0,0,0-.59-3.24c-2.37-8.33-11.1-13.69-19.49-10.35-11.65,4.63-16.76,26.65-16,37.81,0,.66,1.32,7.75,2.2,12.22-.92-2.55-1.78-5-2.75-7.64-1.9-5.16-3.94-10.27-6.11-15.76-1.15-2.62-2.3-5.26-3.47-7.94s-2.61-5.35-3.91-8.06c-3.15-6.22-6.64-12.37-10.3-18.49,4.52-1.67,20.49-7.83,26.5-13.69s12-14.93,10.88-23.71c-1.08-8.59-8.9-15.21-17.7-13.18-12.21,2.81-20.6,23.8-21.55,34.95-.06.69.15,8.77.36,13.2-2.23-3.66-4.44-7.32-6.81-10.95-6.85-10.48-14.12-20.87-21.32-31.27-2.2-3.19-4.36-6.39-6.54-9.58,1.61-.58,20.76-7.49,27.49-14.05,6-5.84,12-14.93,10.88-23.71-1.08-8.59-8.9-15.21-17.7-13.18-12.21,2.81-20.6,23.79-21.55,34.94-.08.84.25,12.47.48,15.42-4.79-7-9.49-14.1-13.85-21.24a262.55,262.55,0,0,1-15.88-29.93c.76-.27,20.77-7.39,27.67-14.11,6-5.83,12-14.93,10.87-23.71-1.08-8.59-8.9-15.21-17.69-13.18-12.22,2.81-20.61,23.8-21.56,34.94-.06.74.18,9.6.39,13.8l-.69.16A189.75,189.75,0,0,1,145.6,232c-1.43-6.09-2.46-12-3.33-17.77,3.87-.95,21.48-5.46,28.35-10.82,6.59-5.15,13.55-13.53,13.42-22.37-.14-8.66-7.18-16.1-16.15-15.05-12.44,1.45-23.09,21.39-25.26,32.37-.12.59-.65,6.8-1,11.32-.35-2.61-.76-5.3-1-7.81-1.1-9.41-1.53-18.1-1.85-25.79-.14-4.38-.19-8.34-.19-12,3.31-2.9,16.49-14.77,20.06-22.56,3.47-7.6,5.79-18.25,1.59-26-4.11-7.62-13.78-11-21.26-5.92-10.37,7-10.63,29.63-7.5,40.38.27.92,6.17,15,6.35,14.81l.2-.18c-.07,3.57-.11,7.4-.06,11.58.15,7.71.39,16.44,1.29,25.91a263.79,263.79,0,0,0,4.36,30.42,192.29,192.29,0,0,0,9.66,33c.05.13.12.25.17.38-2.33-2.84-9.09-10.57-9.67-11.11-8.27-7.54-28.69-17.24-39.56-11-7.84,4.49-9.08,14.65-4,21.7s15.73,9.8,24.09,10c9.42.25,28.24-7.72,29.73-8.36a262.42,262.42,0,0,0,15.72,31.3c3.42,5.89,7,11.72,10.75,17.51-2.08-2.39-4-4.52-4.26-4.78-8.27-7.55-28.69-17.25-39.56-11-7.84,4.48-9.08,14.65-4,21.69,5.15,7.2,15.73,9.8,24.09,10s24.66-6.25,28.92-8c1.44,2.21,2.86,4.43,4.32,6.63,7,10.57,14,21.09,20.55,31.61,2.32,3.71,4.46,7.45,6.62,11.18-1.86-2.13-3.44-3.9-3.71-4.14-8.27-7.54-28.68-17.25-39.55-11-7.84,4.48-9.08,14.65-4,21.69,5.15,7.2,15.73,9.8,24.08,10C202,390,217,384.1,222,382Z"></path><path d="M109.18,213c9.4,2.84,31.18-.24,31.2-.25.22,0-6.4-13.74-6.91-14.56-6-9.45-23.11-24.2-35.25-21.07C89.48,179.42,85.6,188.9,88.6,197,91.66,205.32,101.18,210.62,109.18,213Z" style="opacity:0.30000000000000004"></path><path d="M330.68,191.58c.21.1,2.25-15,2.27-16,.22-11.19-5.92-32.94-17.77-37-8.53-2.94-17,2.82-19,11.25-2,8.62,3,18.29,8.33,24.72C310.79,182.13,330.67,191.57,330.68,191.58Z" style="opacity:0.30000000000000004"></path><path d="M222,382c2.1,3.88,4.2,7.77,6.06,11.63,1.2,2.67,2.55,5.15,3.61,7.9l3.3,8c1.91,5.17,3.91,10.48,5.64,15.57,1.23,3.53,2.34,6.91,3.47,10.32-2.26-3.72-6.84-10.9-7.29-11.46-7-8.71-25.74-21.39-37.43-16.89-8.42,3.25-11.19,13.11-7.28,20.84,4,7.89,14.07,12.07,22.29,13.55,9.06,1.63,28.12-3.11,30.49-3.72,1.85,5.65,3.59,11.15,5.15,16.37,2.8,9.28,5.16,17.78,7.15,25.32h8.32c-2.3-8.09-5.07-17.34-8.38-27.53-1.85-5.74-4-11.83-6.16-18.07a160.52,160.52,0,0,0,16.07-10c7.19,6.14,24.47,12.28,26.7,13.05-1.57,5.73-3.15,11.28-4.73,16.5-2.91,9.7-5.75,18.45-8.35,26.08h8.4c2.24-7.17,4.64-15.18,7.08-24,1.62-5.81,3.24-12.05,4.84-18.47,2.4.21,22,1.83,30.7-1.25,7.88-2.79,17.14-8.54,19.81-17,2.61-8.26-1.71-17.54-10.55-19.39-12.26-2.56-28.68,13-34.21,22.71-.33.57-3.18,7.19-4.9,11.4.64-2.63,1.29-5.17,1.91-7.89,1.27-5.35,2.39-10.73,3.6-16.52l1.49-8.53c.55-2.83.78-5.9,1.19-8.88.8-6.93,1.28-14,1.6-21.11,4.69,1.11,21.41,4.78,29.66,3.21s18.23-5.84,22.15-13.77c3.84-7.77,1-17.6-7.48-20.77-11.74-4.38-30.32,8.49-37.26,17.26-.44.55-4.71,7.41-7,11.22.16-4.28.35-8.56.37-12.89.06-12.53-.26-25.2-.53-37.85-.09-3.87-.12-7.73-.17-11.6,1.66.41,21.44,5.21,30.68,3.45,8.21-1.56,18.23-5.84,22.15-13.77,3.83-7.77,1-17.6-7.49-20.76-11.74-4.39-30.31,8.48-37.26,17.26-.52.66-6.66,10.53-8.1,13.12-.11-8.51-.14-17,.17-25.36a261,261,0,0,1,3.27-33.72c.77.2,21.39,5.3,30.85,3.5,8.21-1.57,18.24-5.85,22.15-13.78,3.84-7.76,1-17.6-7.48-20.76C348.56,210.14,330,223,323,231.79c-.46.57-5.14,8.09-7.28,11.72l-.67-.25a190.24,190.24,0,0,1,9.34-32.76c2.17-5.87,4.57-11.37,7-16.66,3.74,1.34,20.91,7.3,29.6,6.61,8.34-.65,18.77-3.8,23.54-11.25,4.66-7.3,2.89-17.39-5.17-21.46-11.18-5.65-31.06,5.1-38.92,13.06-.43.43-4.29,5.32-7.06,8.91,1.15-2.37,2.29-4.84,3.43-7.09,4.28-8.46,8.71-15.94,12.69-22.53,2.3-3.73,4.44-7.06,6.49-10.16,4.36-.6,21.9-3.22,29.17-7.75,7.09-4.42,14.9-12,15.7-20.84.77-8.62-5.44-16.76-14.47-16.66-12.53.14-25.22,18.84-28.53,29.53-.29.92-3.11,15.88-2.88,15.86l.26,0c-2,2.94-4.16,6.11-6.42,9.62-4.14,6.52-8.75,13.93-13.22,22.33a262.38,262.38,0,0,0-13.15,27.78,193.46,193.46,0,0,0-10.16,32.85c0,.13,0,.27-.06.41-.37-3.66-1.74-13.83-1.94-14.6-2.74-10.85-14.41-30.21-26.91-31-9-.58-15.66,7.22-15.34,15.87.32,8.84,7.71,16.85,14.56,21.65,7.72,5.4,27.82,9.14,29.42,9.43a262.19,262.19,0,0,0-4.17,34.78c-.39,6.79-.58,13.65-.68,20.53-.42-3.14-.82-6-.92-6.34-2.74-10.85-14.41-30.21-26.92-31-9-.59-15.65,7.21-15.33,15.87.32,8.84,7.71,16.84,14.56,21.64s24,8.39,28.54,9.26c0,2.64-.05,5.28-.05,7.92,0,12.66,0,25.3-.29,37.7-.12,4.37-.39,8.67-.65,13-.38-2.79-.72-5.14-.81-5.5-2.74-10.85-14.41-30.2-26.91-31-9-.58-15.66,7.21-15.34,15.87.32,8.84,7.72,16.85,14.56,21.64,6.63,4.64,22.36,8,27.73,9.11-.39,4.39-.78,8.8-1.37,13-.46,2.89-.71,5.7-1.34,8.58s-1.11,5.69-1.66,8.49c-1.26,5.36-2.53,10.9-3.89,16.1-.92,3.62-1.86,7.06-2.79,10.52.16-4.35.31-12.86.24-13.58-.71-7.4-4.76-19.09-11-26.9a17.77,17.77,0,0,0-.59-3.24c-2.37-8.33-11.1-13.69-19.49-10.35-11.65,4.63-16.76,26.65-16,37.81,0,.66,1.32,7.75,2.2,12.22-.92-2.55-1.78-5-2.75-7.64-1.9-5.16-3.94-10.27-6.11-15.76-1.15-2.62-2.3-5.26-3.47-7.94s-2.61-5.35-3.91-8.06c-3.15-6.22-6.64-12.37-10.3-18.49,4.52-1.67,20.49-7.83,26.5-13.69s12-14.93,10.88-23.71c-1.08-8.59-8.9-15.21-17.7-13.18-12.21,2.81-20.6,23.8-21.55,34.95-.06.69.15,8.77.36,13.2-2.23-3.66-4.44-7.32-6.81-10.95-6.85-10.48-14.12-20.87-21.32-31.27-2.2-3.19-4.36-6.39-6.54-9.58,1.61-.58,20.76-7.49,27.49-14.05,6-5.84,12-14.93,10.88-23.71-1.08-8.59-8.9-15.21-17.7-13.18-12.21,2.81-20.6,23.79-21.55,34.94-.08.84.25,12.47.48,15.42-4.79-7-9.49-14.1-13.85-21.24a262.55,262.55,0,0,1-15.88-29.93c.76-.27,20.77-7.39,27.67-14.11,6-5.83,12-14.93,10.87-23.71-1.08-8.59-8.9-15.21-17.69-13.18-12.22,2.81-20.61,23.8-21.56,34.94-.06.74.18,9.6.39,13.8l-.69.16A189.75,189.75,0,0,1,145.6,232c-1.43-6.09-2.46-12-3.33-17.77,3.87-.95,21.48-5.46,28.35-10.82,6.59-5.15,13.55-13.53,13.42-22.37-.14-8.66-7.18-16.1-16.15-15.05-12.44,1.45-23.09,21.39-25.26,32.37-.12.59-.65,6.8-1,11.32-.35-2.61-.76-5.3-1-7.81-1.1-9.41-1.53-18.1-1.85-25.79-.14-4.38-.19-8.34-.19-12,3.31-2.9,16.49-14.77,20.06-22.56,3.47-7.6,5.79-18.25,1.59-26-4.11-7.62-13.78-11-21.26-5.92-10.37,7-10.63,29.63-7.5,40.38.27.92,6.17,15,6.35,14.81l.2-.18c-.07,3.57-.11,7.4-.06,11.58.15,7.71.39,16.44,1.29,25.91a263.79,263.79,0,0,0,4.36,30.42,192.29,192.29,0,0,0,9.66,33c.05.13.12.25.17.38-2.33-2.84-9.09-10.57-9.67-11.11-8.27-7.54-28.69-17.24-39.56-11-7.84,4.49-9.08,14.65-4,21.7s15.73,9.8,24.09,10c9.42.25,28.24-7.72,29.73-8.36a262.42,262.42,0,0,0,15.72,31.3c3.42,5.89,7,11.72,10.75,17.51-2.08-2.39-4-4.52-4.26-4.78-8.27-7.55-28.69-17.25-39.56-11-7.84,4.48-9.08,14.65-4,21.69,5.15,7.2,15.73,9.8,24.09,10s24.66-6.25,28.92-8c1.44,2.21,2.86,4.43,4.32,6.63,7,10.57,14,21.09,20.55,31.61,2.32,3.71,4.46,7.45,6.62,11.18-1.86-2.13-3.44-3.9-3.71-4.14-8.27-7.54-28.68-17.25-39.55-11-7.84,4.48-9.08,14.65-4,21.69,5.15,7.2,15.73,9.8,24.08,10C202,390,217,384.1,222,382Z" style="opacity:0.30000000000000004"></path></g></g><g id="freepik--Clouds--inject-2"><path d="M119.81,50.32s-4.92-12.66-22.49-14.06S77.64,53.83,74.13,56.64s-10.55-4.92-17.58-2.11a19.36,19.36,0,0,0-9.84,9.14s-6.32-2.81-10.54-2.11-9.14,7-9.14,7H145.82s0-12-8.43-16.17-11.95,4.93-14.06,4.22S119.81,50.32,119.81,50.32Z" style="fill:none;stroke:#263238;stroke-miterlimit:10"></path><path d="M460.51,143.58s-4.18-10.76-19.13-12S424.64,146.57,421.65,149s-9-4.19-14.95-1.8a16.47,16.47,0,0,0-8.37,7.78s-5.38-2.39-9-1.8-7.77,6-7.77,6h101s0-10.16-7.17-13.75-10.17,4.19-12,3.59S460.51,143.58,460.51,143.58Z" style="fill:none;stroke:#263238;stroke-miterlimit:10"></path><path d="M127.67,341.08s-5.89-15.16-26.95-16.84-23.58,21.05-27.79,24.42-12.63-5.89-21.05-2.52a23.14,23.14,0,0,0-11.79,10.94s-7.58-3.36-12.64-2.52S16.51,363,16.51,363H158.83s0-14.32-10.1-19.37-14.32,5.89-16.84,5.05S127.67,341.08,127.67,341.08Z" style="fill:none;stroke:#263238;stroke-miterlimit:10"></path></g><g id="freepik--Globe--inject-2"><circle cx="433.31" cy="248.79" r="47.26" style="fill:none;stroke:#263238;stroke-miterlimit:10"></circle><ellipse cx="433.31" cy="248.79" rx="27.17" ry="47.26" style="fill:none;stroke:#263238;stroke-miterlimit:10"></ellipse><line x1="433.31" y1="201.53" x2="433.31" y2="296.05" style="fill:none;stroke:#263238;stroke-miterlimit:10"></line><line x1="405.57" y1="210.72" x2="460.76" y2="210.72" style="fill:none;stroke:#263238;stroke-miterlimit:10"></line><line x1="405.57" y1="287.42" x2="460.76" y2="287.42" style="fill:none;stroke:#263238;stroke-miterlimit:10"></line><line x1="389.67" y1="229.58" x2="476.66" y2="229.58" style="fill:none;stroke:#263238;stroke-miterlimit:10"></line><line x1="389.67" y1="267.31" x2="476.66" y2="267.31" style="fill:none;stroke:#263238;stroke-miterlimit:10"></line><line x1="386.24" y1="248.45" x2="480.09" y2="248.45" style="fill:none;stroke:#263238;stroke-miterlimit:10"></line></g><g id="freepik--search-bar--inject-2"><rect x="305.9" y="38.49" width="124.64" height="26.24" rx="6.97" style="fill:none;stroke:#263238;stroke-miterlimit:10"></rect><line x1="400.15" y1="38.4" x2="400.15" y2="65.24" style="fill:none;stroke:#263238;stroke-miterlimit:10"></line><path d="M427.65,59.14l-7.15-5.37a8.59,8.59,0,1,0-1.82,2.39l7.17,5.38a1.52,1.52,0,0,0,.9.3,1.5,1.5,0,0,0,.9-2.7Zm-14.74-3.71a5.53,5.53,0,1,1,5.52-5.53A5.54,5.54,0,0,1,412.91,55.43Z" style="fill:none;stroke:#263238;stroke-miterlimit:10"></path></g><g id="freepik--magnifying-glass--inject-2"><path d="M107,160.84,78.65,139.61a33.89,33.89,0,1,0-7.18,9.45l28.36,21.27a5.94,5.94,0,1,0,7.13-9.49ZM48.63,146.17A21.88,21.88,0,1,1,70.5,124.3,21.9,21.9,0,0,1,48.63,146.17Z" style="fill:none;stroke:#263238;stroke-miterlimit:10"></path></g><g id="freepik--Character--inject-2"><path d="M246.92,194.25c-54.15,0-100.1,30.67-116.36,73.21a1.94,1.94,0,0,0,.64,2.22l45.53,35a2,2,0,0,0,1.17.4h7.3a1.93,1.93,0,0,0,1.92-2q0-.81,0-1.62c0-28.88,26.78-52.3,59.83-52.3s59.83,23.42,59.83,52.3S280,353.74,246.92,353.74a68.51,68.51,0,0,1-15.1-1.69,5.93,5.93,0,0,0-1.39-.16h0a6.43,6.43,0,0,0-6,8.69l6.65,17.62v40.38h73.09v-16.7a8.9,8.9,0,0,1,4.8-7.94c36.27-18.63,60.62-53.07,60.62-92.49C369.57,242.24,314.66,194.25,246.92,194.25Z" style="fill:#263238;stroke:#263238;stroke-miterlimit:10"></path><rect x="231.06" y="426.49" width="73.09" height="52.98" style="fill:#263238;stroke:#263238;stroke-miterlimit:10"></rect><path d="M359.57,301.45c0-59.21-54.91-107.2-122.65-107.2-54.1,0-100,30.6-116.31,73.08a2,2,0,0,0,.78,2.32l52.74,33.46a1.93,1.93,0,0,0,3-1.63v0c0-28.88,26.79-52.3,59.83-52.3s59.83,23.42,59.83,52.3S270,353.74,236.92,353.74a68.1,68.1,0,0,1-8.51-.53,6.42,6.42,0,0,0-7.27,6.36V378.2h-.08v40.38h73.09v-16.7a8.92,8.92,0,0,1,4.8-7.94C335.22,375.31,359.57,340.87,359.57,301.45Z" style="fill:#3CB0AA;stroke:#263238;stroke-miterlimit:10"></path><rect x="221.06" y="426.49" width="73.09" height="52.98" style="fill:#3CB0AA;stroke:#263238;stroke-miterlimit:10"></rect><path d="M230.5,90.8S223.28,94,220,95.49a34.9,34.9,0,0,1-5.78,2.16l5.51,2.89,15.52-2.44Z" style="fill:#fff;stroke:#263238;stroke-miterlimit:10"></path><path d="M207.49,94.13a11.89,11.89,0,0,1-2.44-3.33c-.72-1.72-2.17-.91-2.17.36a6.29,6.29,0,0,0,1.18,3.43c.36.18,4.15.81,4.15.81Z" style="fill:none;stroke:#263238;stroke-miterlimit:10"></path><path d="M233.38,101.79l1.53,8.66s-3,17.19-3.58,27.08-1,16.33-.43,18.91,8,27.65,8,27.65-1.29,1.58-1.29,2-.14,2-.14,2a37.29,37.29,0,0,1-3.59,3.15c-1.57,1.15-4.87,2.15-4.29,3.3s4.44,0,8.74,0,7.3.57,8.88-.57.14-5.45.14-5.45.15-3,.29-3.87-1.86-5.3-1.72-6.59S242.5,151,242.5,151l7.16-26.5s11.75,29.8,13.19,31.23,20.77,26.08,20.77,26.08-1.29,1.43-.86,2.15a15.63,15.63,0,0,0,1.15,1.57s-1.44,3-2.3,4.3-3.29,2-2.86,2.87,4.87,1,6,.71,5.73-5.3,7-6.3,3.72-2.87,3.72-4.16-2.43-2.86-2.58-3.29-.43-2.29-1.29-2.87a26.34,26.34,0,0,0-2.58-1.43c-.57-.29-14.9-25.22-14.9-25.22s-6.44-38.39-8.16-42.83-11.49-17.21-11.49-17.21Z" style="fill:#263238;stroke:#263238;stroke-miterlimit:10"></path><path d="M217.78,78s1.89,8.67,4.28,10.94,7.17,2.89,7.17,2.89l4.15,9.94s15.09-4.66,21.13-11.7c0,0-7-11.19-12.2-18.36S239.29,63.3,232,59s-13.21,1.64-13.21,1.64S213.26,60.91,217.78,78Z" style="fill:#3CB0AA;stroke:#263238;stroke-miterlimit:10"></path><path d="M208.87,36.27s-1.47-3-11-1.48A14.3,14.3,0,0,0,185.39,47c-.38,3,0,2.86-.92,3.61s-5,.26-4.28,4.66,5.92,1.88,6.67,3.39a4.37,4.37,0,0,0,4,2.64c2.13.13,4.15-2.39,4.4-3.39s2.39-1.89,6.16.38,8.8,6.28,14.09,1.88S213.9,40.16,208.87,36.27Z" style="fill:#263238;stroke:#263238;stroke-miterlimit:10"></path><path d="M189.11,55a24.86,24.86,0,0,0,1.59,4c.79,1.36,3.73,2.61,3.85,4.64s-.57,3.4,0,3.74,3.28-.45,3.28-.45,6,4,7.47,3.39,4.3-4.53,4.3-4.53L216,70.34,217.78,78l2.27-3.65s-4.28-5.16-2.77-9.43l1.51-4.28s-9.64-1.33-10.89-2.91-3.51-5.55-5.54-6.12-2.83,2.27-2.61,2.95-3.39.56-5.66-.34l-2.26-.91C191.26,53.11,189.11,54,189.11,55Z" style="fill:#fff;stroke:#263238;stroke-miterlimit:10"></path><path d="M193.41,59.67s-.11-2,1.59-2.26" style="fill:none;stroke:#263238;stroke-miterlimit:10"></path><path d="M196.52,60.36c.56.46.78,1.1.5,1.44s-1,.24-1.5-.21-.79-1.11-.51-1.44S196,59.9,196.52,60.36Z" style="fill:#263238"></path><path d="M200.77,67s.68-.45.12-2.26" style="fill:none;stroke:#263238;stroke-miterlimit:10"></path><path d="M205.53,54.35s1.58,1.7,1,2.6a3.93,3.93,0,0,1-1.14,1.25s1.48,1.47,1.59,2.38" style="fill:#fff;stroke:#263238;stroke-miterlimit:10"></path><path d="M200.75,49.86s5.58,3.64,8.53,8.19,11.35,4.31,14.32,1.81,3.52-4.92,5.81-4.35,7.79,2.45,11.37-.18.9-7.86,4.54-6.91a9.52,9.52,0,0,0,10.5-4c2.46-3.82,4.35-10.34-2.54-18.86C248,19,240.09,20.72,237.72,21.05s-1.59-2.27-9.33-2.27c-8,0-11.77,6.81-12.29,8.71s1.64,3.19-4.55,1.07-9.21.23-9.1,3.41-6.88,4.27-8.19,4.78" style="fill:#263238;stroke:#263238;stroke-miterlimit:10"></path><path d="M272.15,115.39a3.69,3.69,0,0,1-.87-.1L193.59,95.24a2.54,2.54,0,1,1,1.21-4.94L273,108.22a3.64,3.64,0,0,1-.86,7.17Z" style="fill:#8f8f8f;stroke:#263238;stroke-miterlimit:10"></path><path d="M239.79,101.91l-2.39,1.76a11.11,11.11,0,0,1-2,2.52c-.88.63-1.38,1-.5,1.38s3-.5,3-.5-.76,3.27-.13,3.52,2,.38,2.39-.12a2.63,2.63,0,0,1,1-.76s.37.5,2.64-.12,2.39-4.53,2.64-6.29,10.31-23.9,10.94-26.79,0-4.66-.88-5.16-26-8.3-29-8.55-6.29,4-4.53,8.17,8.8,5.54,10.69,5.79,13,1.63,13,1.63-2.26,11.45-2.76,15.6A11.68,11.68,0,0,1,239.79,101.91Z" style="fill:#fff;stroke:#263238;stroke-miterlimit:10"></path><path d="M203.61,96a20.52,20.52,0,0,0-.27,3.7c.18.45,1.62,1.26,2-.09s.45-3.61-.18-4S204.15,95.13,203.61,96Z" style="fill:#fff;stroke:#263238;stroke-miterlimit:10"></path><path d="M206,97.41a21.25,21.25,0,0,0,.48,3.68c.27.4,1.84.91,1.92-.49s-.28-3.63-1-3.85S206.31,96.42,206,97.41Z" style="fill:#fff;stroke:#263238;stroke-miterlimit:10"></path><path d="M208.3,97.77a22.28,22.28,0,0,0,.48,3.68c.27.4,1.85.91,1.93-.49s-.29-3.63-1-3.85S208.65,96.78,208.3,97.77Z" style="fill:#fff;stroke:#263238;stroke-miterlimit:10"></path><path d="M210.88,98.26a18.08,18.08,0,0,0,.41,3.13c.23.34,1.57.77,1.64-.42s-.25-3.08-.83-3.28S211.18,97.41,210.88,98.26Z" style="fill:#fff;stroke:#263238;stroke-miterlimit:10"></path><path d="M196.39,96.25l.22-4.3-3-4.44c-2-5.45-14.65-10.08-23.68-12.3s-19.69-.72-24.39,1.66-5.77,3.82-5.77,3.82l-.29,5.71c-1.28,6.47,10.4,14.24,26.1,17.35s29.46.38,30.74-6.1A5,5,0,0,0,196.39,96.25ZM182.81,97c-9.2,1.37-17.61.36-24.93-2.84a67.72,67.72,0,0,1-13.08-8c2-4.51,12.74-6.21,25-3.78,11.62,2.3,20.59,7.52,21.58,12.24A27.77,27.77,0,0,1,182.81,97Z" style="fill:#8f8f8f;stroke:#263238;stroke-miterlimit:10"></path><path d="M170.51,74.6c-15.69-3.11-29.46-.38-30.74,6.09s10.4,14.25,26.1,17.35,29.46.38,30.74-6.09S186.21,77.71,170.51,74.6Zm21.22,15.89c-1,5.08-12.32,7.12-25.27,4.56s-22.63-8.76-21.62-13.84,12.32-7.12,25.27-4.56S192.73,85.41,191.73,90.49Z" style="fill:#fff;stroke:#263238;stroke-miterlimit:10"></path></g></svg>
