<svg width="158" height="182" viewBox="0 0 158 182" fill="none" xmlns="http://www.w3.org/2000/svg">
<path d="M117.36 159.522C117.1 159.522 116.85 159.452 116.61 159.322L77.98 137.022C77.52 136.752 77.2401 136.262 77.2401 135.732C77.2401 135.202 77.52 134.712 77.98 134.442L116.6 112.143C117.06 111.873 117.63 111.873 118.09 112.143C118.55 112.413 118.83 112.902 118.83 113.432L118.84 158.033C118.84 158.563 118.56 159.052 118.1 159.322C117.88 159.462 117.62 159.522 117.36 159.522ZM81.7101 135.732L115.87 155.452V116.012L81.7101 135.732Z" fill="white"/>
<path d="M78.73 137.243C78.47 137.243 78.22 137.173 77.98 137.043L39.35 114.733C38.89 114.463 38.61 113.972 38.61 113.442L38.62 68.8425C38.62 68.3125 38.9 67.8225 39.36 67.5525C39.82 67.2825 40.39 67.2825 40.85 67.5525L79.48 89.8525C79.94 90.1225 80.22 90.6125 80.22 91.1425V135.752C80.22 136.282 79.94 136.773 79.48 137.043C79.25 137.173 78.99 137.243 78.73 137.243ZM41.59 112.573L77.24 133.162V91.9925L41.6 71.4125L41.59 112.573Z" fill="white"/>
<path d="M40.1101 159.522C39.8501 159.522 39.6001 159.453 39.3601 159.323L0.730053 137.013C0.270053 136.743 -0.00994873 136.252 -0.00994873 135.722L5.34058e-05 91.1225C5.34058e-05 90.5925 0.280051 90.1025 0.740051 89.8325C1.20005 89.5625 1.77005 89.5625 2.23005 89.8325L40.8 112.103C40.88 112.143 40.9601 112.192 41.0301 112.252C41.3901 112.532 41.6001 112.973 41.6001 113.423V158.033C41.6001 158.563 41.3201 159.053 40.8601 159.323C40.6201 159.463 40.3701 159.522 40.1101 159.522ZM2.97005 134.862L38.6301 155.453V114.283L2.98005 93.7025L2.97005 134.862Z" fill="white"/>
<path d="M78.73 137.243C78.47 137.243 78.22 137.173 77.98 137.043C77.52 136.773 77.2401 136.282 77.2401 135.752V91.1425C77.2401 90.6125 77.5201 90.1225 77.9901 89.8525L116.62 67.5525C117.08 67.2825 117.65 67.2825 118.11 67.5525C118.57 67.8225 118.85 68.3125 118.85 68.8425L118.86 113.442C118.86 113.972 118.58 114.463 118.12 114.733L79.4901 137.043C79.2501 137.173 78.99 137.243 78.73 137.243ZM80.2201 91.9925V133.162L115.87 112.573L115.86 71.4125L80.2201 91.9925Z" fill="white"/>
<path d="M117.36 159.522C117.1 159.522 116.85 159.453 116.61 159.323C116.15 159.053 115.87 158.563 115.87 158.033V113.423C115.87 112.963 116.08 112.532 116.44 112.252C116.51 112.192 116.59 112.143 116.67 112.103L155.24 89.8325C155.7 89.5625 156.27 89.5625 156.73 89.8325C157.19 90.1025 157.47 90.5925 157.47 91.1225L157.48 135.722C157.48 136.252 157.2 136.743 156.74 137.013L118.11 159.323C117.87 159.463 117.62 159.522 117.36 159.522ZM118.85 114.283V155.453L154.51 134.862L154.5 93.7025L118.85 114.283Z" fill="white"/>
<path d="M1.48005 92.6525C1.22005 92.6525 0.970053 92.5825 0.730053 92.4525C0.270053 92.1825 -0.00994873 91.6925 -0.00994873 91.1625V46.5525C-0.00994873 46.0325 0.26005 45.5525 0.70005 45.2825C0.73005 45.2625 0.770053 45.2425 0.800053 45.2225L39.3601 22.9625C39.8201 22.6925 40.3901 22.6925 40.8501 22.9625C41.3101 23.2325 41.59 23.7225 41.59 24.2525L41.6001 68.8525C41.6001 69.3825 41.3201 69.8725 40.8601 70.1425L2.23005 92.4525C1.99005 92.5825 1.73005 92.6525 1.48005 92.6525ZM2.97005 47.4125V88.5825L38.6301 67.9925L38.62 26.8325L2.97005 47.4125Z" fill="white"/>
<path d="M155.99 92.6525C155.73 92.6525 155.48 92.5825 155.24 92.4525L116.61 70.1425C116.15 69.8725 115.87 69.3825 115.87 68.8525L115.88 24.2525C115.88 23.7225 116.16 23.2325 116.62 22.9625C117.08 22.6925 117.65 22.6925 118.11 22.9625L156.67 45.2225C156.71 45.2425 156.74 45.2625 156.77 45.2825C157.21 45.5525 157.48 46.0325 157.48 46.5525V91.1625C157.48 91.6925 157.2 92.1825 156.74 92.4525C156.51 92.5825 156.25 92.6525 155.99 92.6525ZM118.85 67.9925L154.51 88.5825V47.4125L118.86 26.8325L118.85 67.9925Z" fill="white"/>
<path d="M117.37 114.923C117.11 114.923 116.86 114.852 116.62 114.722C116.16 114.452 115.88 113.962 115.88 113.432L115.87 68.8325C115.87 68.3025 116.15 67.8125 116.61 67.5425C117.07 67.2725 117.64 67.2725 118.1 67.5425L156.73 89.8425C157.19 90.1125 157.47 90.6025 157.47 91.1325C157.47 91.6625 157.19 92.1525 156.73 92.4225L118.11 114.722C117.88 114.862 117.62 114.923 117.37 114.923ZM118.85 71.4125V110.852L153 91.1325L118.85 71.4125Z" fill="white"/>
<path d="M40.11 159.542C39.85 159.542 39.6 159.472 39.36 159.342C38.9 159.072 38.62 158.582 38.62 158.052L38.61 113.452C38.61 112.923 38.89 112.432 39.35 112.162C39.81 111.892 40.38 111.892 40.84 112.162L79.47 134.462C79.93 134.732 80.21 135.222 80.21 135.752C80.21 136.282 79.93 136.772 79.47 137.042L40.85 159.342C40.63 159.472 40.37 159.542 40.11 159.542ZM41.6 116.033V155.472L75.75 135.752L41.6 116.033Z" fill="white"/>
<path d="M40.11 70.3425C39.85 70.3425 39.6 70.2725 39.36 70.1425C38.9 69.8725 38.62 69.3825 38.62 68.8525L38.61 24.2525C38.61 23.7225 38.89 23.2325 39.35 22.9625C39.81 22.6925 40.38 22.6925 40.84 22.9625L79.47 45.2625C79.93 45.5325 80.21 46.0225 80.21 46.5525C80.21 47.0825 79.93 47.5725 79.47 47.8425L40.85 70.1425C40.63 70.2725 40.37 70.3425 40.11 70.3425ZM41.6 26.8325V66.2725L75.75 46.5525L41.6 26.8325Z" fill="white"/>
<path d="M117.36 70.3425C117.1 70.3425 116.85 70.2725 116.61 70.1425L77.98 47.8425C77.52 47.5725 77.2401 47.0825 77.2401 46.5525C77.2401 46.0225 77.52 45.5325 77.98 45.2625L116.6 22.9625C117.06 22.6925 117.63 22.6925 118.09 22.9625C118.55 23.2325 118.83 23.7225 118.83 24.2525L118.84 68.8525C118.84 69.3825 118.56 69.8725 118.1 70.1425C117.88 70.2725 117.62 70.3425 117.36 70.3425ZM81.7101 46.5425L115.87 66.2625V26.8225L81.7101 46.5425Z" fill="white"/>
<path d="M40.1101 114.942C39.8501 114.942 39.6001 114.872 39.3601 114.742L0.730053 92.4425C0.270053 92.1725 -0.00994873 91.6825 -0.00994873 91.1525C-0.00994873 90.6225 0.270053 90.1325 0.730053 89.8625L39.3501 67.5625C39.8101 67.2925 40.38 67.2925 40.84 67.5625C41.3 67.8325 41.5801 68.3225 41.5801 68.8525L41.59 113.452C41.59 113.982 41.3101 114.472 40.8501 114.742C40.6201 114.872 40.3601 114.942 40.1101 114.942ZM4.46005 91.1525L38.62 110.872V71.4325L4.46005 91.1525Z" fill="white"/>
<path d="M78.73 92.6225C78.47 92.6225 78.22 92.5525 77.99 92.4225L39.36 70.1325C38.9 69.8625 38.61 69.3725 38.61 68.8425C38.61 68.3125 38.89 67.8225 39.35 67.5525L77.97 45.2425C78.43 44.9725 79 44.9725 79.46 45.2425L118.09 67.5525C118.55 67.8225 118.83 68.3125 118.83 68.8425C118.83 69.3725 118.55 69.8625 118.08 70.1325L79.45 92.4225C79.24 92.5625 78.99 92.6225 78.73 92.6225ZM43.09 68.8425L78.73 89.4125L114.38 68.8425L78.73 48.2525L43.09 68.8425Z" fill="white"/>
<path d="M78.7301 181.822C78.4701 181.822 78.2201 181.752 77.9901 181.622L39.3701 159.332C38.9101 159.062 38.6201 158.572 38.6201 158.042C38.6201 157.512 38.9001 157.022 39.3601 156.752L77.9801 134.442C78.4401 134.172 79.0101 134.172 79.4701 134.442L118.1 156.752C118.56 157.022 118.84 157.512 118.84 158.042C118.84 158.572 118.56 159.062 118.09 159.332L79.4601 181.622C79.2401 181.762 78.9901 181.822 78.7301 181.822ZM43.0901 158.042L78.7301 178.612L114.38 158.042L78.7301 137.453L43.0901 158.042Z" fill="white"/>
<path d="M78.73 48.0225C78.47 48.0225 78.22 47.9525 77.99 47.8225L39.36 25.5325C38.9 25.2625 38.61 24.7725 38.61 24.2425C38.61 23.7125 38.89 23.2225 39.35 22.9525L77.97 0.642502C78.43 0.372502 79 0.372502 79.46 0.642502L118.09 22.9525C118.55 23.2225 118.83 23.7125 118.83 24.2425C118.83 24.7725 118.55 25.2625 118.08 25.5325L79.45 47.8225C79.24 47.9625 78.99 48.0225 78.73 48.0225ZM43.09 24.2425L78.73 44.8125L114.38 24.2425L78.73 3.6525L43.09 24.2425Z" fill="white"/>
</svg>
