<svg width="158" height="184" viewBox="0 0 158 184" fill="none" xmlns="http://www.w3.org/2000/svg">
<g clip-path="url(#clip0_2028_17826)">
<path d="M79 137.68L118.49 160.49V114.89L79 137.68Z" fill="#B7BDC9"/>
<path d="M79 92.08L39.5 69.28V114.89L79 137.7V92.08Z" fill="#446D87"/>
<path d="M39.5 114.87L0.00999832 92.07L0 137.67L39.5 160.49V114.87Z" fill="#3CB0AA"/>
<path d="M79 92.08L118.49 69.28L118.5 114.89L78.99 137.7V92.08H79Z" fill="#3CB0AA"/>
<path d="M118.49 114.87L157.99 92.07V137.67L118.49 160.49V114.87Z" fill="#3282A5"/>
<path d="M0 46.5L39.5 23.69V69.3L0 92.11V46.49V46.5Z" fill="#E6E7E8"/>
<path d="M157.99 46.5L118.5 23.69L118.49 69.3L157.99 92.11V46.49V46.5Z" fill="#E6E7E8"/>
<path d="M157.99 92.09L118.49 69.28L118.5 114.89L157.99 92.09Z" fill="#B7BDC9"/>
<path d="M79 137.7L39.5 114.9L39.51 160.5L79 137.7Z" fill="#B7BDC9"/>
<path d="M79 46.5L39.5 23.69L39.51 69.3L79 46.5Z" fill="#B7BDC9"/>
<path d="M79 46.49L118.49 69.3V23.69L79 46.49Z" fill="#B7BDC9"/>
<path d="M0.00999451 92.1L39.5 114.9V69.3L0.00999451 92.1Z" fill="#B7BDC9"/>
<path d="M39.5 69.29L78.99 46.48L118.49 69.3L78.99 92.08L39.5 69.29Z" fill="#3282A5"/>
<path d="M39.5 160.5L78.99 137.69L118.49 160.5L78.99 183.29L39.5 160.5Z" fill="#E6E7E8"/>
<path d="M39.5 23.69L78.99 0.880005L118.49 23.7L78.99 46.48L39.5 23.69Z" fill="#446D87"/>
</g>
<defs>
<clipPath id="clip0_2028_17826">
<rect width="157.99" height="182.41" fill="white" transform="translate(0 0.880005)"/>
</clipPath>
</defs>
</svg>
